<mxfile host="app.diagrams.net" modified="2020-12-10T13:44:08.458Z" agent="5.0 (Windows NT 10.0; Win64; x64) AppleWebKit/537.36 (KHTML, like Gecko) Chrome/83.0.4103.106 Whale/2.8.108.15 Safari/537.36" etag="QoKudAiqAdSzmUA6lNe6" version="14.0.0" type="github">
  <diagram id="kgpKYQtTHZ0yAKxKKP6v" name="Page-1">
    <mxGraphModel dx="823" dy="483" grid="1" gridSize="10" guides="1" tooltips="1" connect="1" arrows="1" fold="1" page="1" pageScale="1" pageWidth="850" pageHeight="1100" math="0" shadow="0">
      <root>
        <mxCell id="0" />
        <mxCell id="1" parent="0" />
        <mxCell id="6zGDWoWsF-VF193i9Mpb-25" value="Assessment" style="shape=umlFrame;whiteSpace=wrap;html=1;width=80;height=30;" vertex="1" parent="1">
          <mxGeometry x="70" y="50" width="620" height="330" as="geometry" />
        </mxCell>
        <mxCell id="3nuBFxr9cyL0pnOWT2aG-1" value="CSV File" style="shape=umlLifeline;perimeter=lifelinePerimeter;container=1;collapsible=0;recursiveResize=0;rounded=0;shadow=0;strokeWidth=1;" parent="1" vertex="1">
          <mxGeometry x="555" y="80" width="100" height="300" as="geometry" />
        </mxCell>
        <mxCell id="3nuBFxr9cyL0pnOWT2aG-2" value="" style="points=[];perimeter=orthogonalPerimeter;rounded=0;shadow=0;strokeWidth=1;" parent="3nuBFxr9cyL0pnOWT2aG-1" vertex="1">
          <mxGeometry x="45" y="80" width="10" height="90" as="geometry" />
        </mxCell>
        <mxCell id="6zGDWoWsF-VF193i9Mpb-1" value="Actor" style="shape=umlActor;verticalLabelPosition=bottom;verticalAlign=top;html=1;outlineConnect=0;" vertex="1" parent="1">
          <mxGeometry x="165" y="60" width="30" height="60" as="geometry" />
        </mxCell>
        <mxCell id="6zGDWoWsF-VF193i9Mpb-6" value="" style="endArrow=none;dashed=1;html=1;dashPattern=1 3;strokeWidth=2;" edge="1" parent="1" source="6zGDWoWsF-VF193i9Mpb-26">
          <mxGeometry width="50" height="50" relative="1" as="geometry">
            <mxPoint x="180" y="380" as="sourcePoint" />
            <mxPoint x="180" y="140" as="targetPoint" />
          </mxGeometry>
        </mxCell>
        <mxCell id="6zGDWoWsF-VF193i9Mpb-10" value="Button Click" style="text;html=1;strokeColor=none;fillColor=none;align=center;verticalAlign=middle;whiteSpace=wrap;rounded=0;" vertex="1" parent="1">
          <mxGeometry x="210" y="140" width="70" height="20" as="geometry" />
        </mxCell>
        <mxCell id="3nuBFxr9cyL0pnOWT2aG-5" value="Sample List" style="shape=umlLifeline;perimeter=lifelinePerimeter;container=1;collapsible=0;recursiveResize=0;rounded=0;shadow=0;strokeWidth=1;" parent="1" vertex="1">
          <mxGeometry x="410" y="80" width="100" height="300" as="geometry" />
        </mxCell>
        <mxCell id="3nuBFxr9cyL0pnOWT2aG-6" value="" style="points=[];perimeter=orthogonalPerimeter;rounded=0;shadow=0;strokeWidth=1;" parent="3nuBFxr9cyL0pnOWT2aG-5" vertex="1">
          <mxGeometry x="45" y="76" width="10" height="174" as="geometry" />
        </mxCell>
        <mxCell id="6zGDWoWsF-VF193i9Mpb-12" value="GUI" style="shape=umlLifeline;perimeter=lifelinePerimeter;container=1;collapsible=0;recursiveResize=0;rounded=0;shadow=0;strokeWidth=1;" vertex="1" parent="1">
          <mxGeometry x="270" y="80" width="100" height="300" as="geometry" />
        </mxCell>
        <mxCell id="6zGDWoWsF-VF193i9Mpb-13" value="" style="points=[];perimeter=orthogonalPerimeter;rounded=0;shadow=0;strokeWidth=1;" vertex="1" parent="6zGDWoWsF-VF193i9Mpb-12">
          <mxGeometry x="43" y="76" width="10" height="174" as="geometry" />
        </mxCell>
        <mxCell id="6zGDWoWsF-VF193i9Mpb-9" value="" style="endArrow=classic;html=1;" edge="1" parent="1">
          <mxGeometry width="50" height="50" relative="1" as="geometry">
            <mxPoint x="180" y="160" as="sourcePoint" />
            <mxPoint x="310" y="160" as="targetPoint" />
          </mxGeometry>
        </mxCell>
        <mxCell id="6zGDWoWsF-VF193i9Mpb-14" value="" style="endArrow=classic;html=1;exitX=1.067;exitY=0.207;exitDx=0;exitDy=0;exitPerimeter=0;entryX=-0.267;entryY=0.141;entryDx=0;entryDy=0;entryPerimeter=0;" edge="1" parent="1" target="3nuBFxr9cyL0pnOWT2aG-6">
          <mxGeometry width="50" height="50" relative="1" as="geometry">
            <mxPoint x="323.6700000000001" y="182.12" as="sourcePoint" />
            <mxPoint x="430" y="182" as="targetPoint" />
          </mxGeometry>
        </mxCell>
        <mxCell id="6zGDWoWsF-VF193i9Mpb-15" value="Open CSV File" style="text;html=1;strokeColor=none;fillColor=none;align=center;verticalAlign=middle;whiteSpace=wrap;rounded=0;" vertex="1" parent="1">
          <mxGeometry x="340" y="164" width="100" height="20" as="geometry" />
        </mxCell>
        <mxCell id="6zGDWoWsF-VF193i9Mpb-16" value="" style="endArrow=classic;html=1;exitX=1.067;exitY=0.207;exitDx=0;exitDy=0;exitPerimeter=0;entryX=-0.267;entryY=0.141;entryDx=0;entryDy=0;entryPerimeter=0;" edge="1" parent="1">
          <mxGeometry width="50" height="50" relative="1" as="geometry">
            <mxPoint x="466.0000000000001" y="200" as="sourcePoint" />
            <mxPoint x="594.66" y="200.44000000000005" as="targetPoint" />
          </mxGeometry>
        </mxCell>
        <mxCell id="6zGDWoWsF-VF193i9Mpb-17" value="Request info" style="text;html=1;strokeColor=none;fillColor=none;align=center;verticalAlign=middle;whiteSpace=wrap;rounded=0;" vertex="1" parent="1">
          <mxGeometry x="479" y="182" width="100" height="20" as="geometry" />
        </mxCell>
        <mxCell id="6zGDWoWsF-VF193i9Mpb-22" value="&lt;font style=&quot;font-size: 12px&quot;&gt;Send Info List&lt;/font&gt;" style="html=1;verticalAlign=bottom;endArrow=open;dashed=1;endSize=8;entryX=1.333;entryY=0.413;entryDx=0;entryDy=0;entryPerimeter=0;" edge="1" parent="1" target="3nuBFxr9cyL0pnOWT2aG-6">
          <mxGeometry relative="1" as="geometry">
            <mxPoint x="600" y="228" as="sourcePoint" />
            <mxPoint x="300" y="250" as="targetPoint" />
            <Array as="points" />
          </mxGeometry>
        </mxCell>
        <mxCell id="6zGDWoWsF-VF193i9Mpb-23" value="&lt;font style=&quot;font-size: 12px&quot;&gt;Set TextView&lt;/font&gt;" style="html=1;verticalAlign=bottom;endArrow=open;dashed=1;endSize=8;entryX=1.333;entryY=0.413;entryDx=0;entryDy=0;entryPerimeter=0;" edge="1" parent="1">
          <mxGeometry relative="1" as="geometry">
            <mxPoint x="455.83" y="260.14" as="sourcePoint" />
            <mxPoint x="324.16000000000014" y="260.00200000000007" as="targetPoint" />
            <Array as="points" />
          </mxGeometry>
        </mxCell>
        <mxCell id="6zGDWoWsF-VF193i9Mpb-26" value="" style="points=[];perimeter=orthogonalPerimeter;rounded=0;shadow=0;strokeWidth=1;" vertex="1" parent="1">
          <mxGeometry x="175" y="156" width="10" height="174" as="geometry" />
        </mxCell>
        <mxCell id="6zGDWoWsF-VF193i9Mpb-27" value="" style="endArrow=none;dashed=1;html=1;dashPattern=1 3;strokeWidth=2;" edge="1" parent="1" target="6zGDWoWsF-VF193i9Mpb-26">
          <mxGeometry width="50" height="50" relative="1" as="geometry">
            <mxPoint x="180" y="380" as="sourcePoint" />
            <mxPoint x="180" y="140" as="targetPoint" />
          </mxGeometry>
        </mxCell>
        <mxCell id="6zGDWoWsF-VF193i9Mpb-24" value="&lt;font style=&quot;font-size: 12px&quot;&gt;Print Custom View&lt;/font&gt;" style="html=1;verticalAlign=bottom;endArrow=open;dashed=1;endSize=8;" edge="1" parent="1">
          <mxGeometry relative="1" as="geometry">
            <mxPoint x="311.66999999999996" y="283.14" as="sourcePoint" />
            <mxPoint x="190" y="283" as="targetPoint" />
            <Array as="points" />
          </mxGeometry>
        </mxCell>
      </root>
    </mxGraphModel>
  </diagram>
</mxfile>
